# AST/ASF file generated using VICON BodyLanguage
# -----------------------------------------------
:version 1.10
:name VICON
:units
  mass 1.0
  length 0.45
  angle deg
:documentation
   .ast/.asf automatically generated from VICON data using
   VICON BodyBuilder and BodyLanguage model FoxedUp or BRILLIANT.MOD
:root
   order TX TY TZ RX RY RZ
   axis XYZ
   position 0 0 0  
   orientation 0 0 0 
:bonedata
  begin
     id 1 
     name lhipjoint
     direction 0.602128 -0.715006 0.355257 
     length 2.21237 
     axis 0 0 0  XYZ
  end
  begin
     id 2 
     name lfemur
     direction 0.34202 -0.939693 0  
     length 6.71649  
     axis 0 0 20  XYZ
    dof rx ry rz
    limits (-160.0 20.0)
           (-70.0 70.0)
           (-60.0 70.0)
  end
  begin
     id 3 
     name ltibia
     direction 0.34202 -0.939693 0   
     length 6.97123   
     axis 0 0 20   XYZ
    dof rx
    limits (-10.0 170.0)
  end
  begin
     id 4 
     name lfoot
     direction 0.0655697 -0.180151 0.981451   
     length 1.80924   
     axis -90 7.62852e-016 20   XYZ
    dof rx rz
    limits (-45.0 90.0)
           (-70.0 20.0)
  end
  begin
     id 5 
     name ltoes
     direction 1.53545e-011 -4.21827e-011 1   
     length 0.916331   
     axis -90 7.62852e-016 20   XYZ
    dof rx
    limits (-90.0 20.0)
  end
  begin
     id 6 
     name rhipjoint
     direction -0.625414 -0.698792 0.347201   
     length 2.2637  
     axis 0 0 0  XYZ 
  end
  begin
     id 7 
     name rfemur
     direction -0.34202 -0.939693 0   
     length 7.07595   
     axis 0 0 -20   XYZ
    dof rx ry rz
    limits (-160.0 20.0)
           (-70.0 70.0)
           (-70.0 60.0)
  end
  begin
     id 8 
     name rtibia
     direction -0.34202 -0.939693 0   
     length 7.22924   
     axis 0 0 -20   XYZ
    dof rx
    limits (-10.0 170.0)
 end
 begin
     id 9 
     name rfoot
     direction -0.0766747 -0.210662 0.974547   
     length 1.98482  
     axis -90 -7.62852e-016 -20   XYZ
    dof rx rz
    limits (-45.0 90.0)
           (-20.0 70.0)
  end
  begin
     id 10 
     name rtoes
     direction -1.53532e-011 -4.21867e-011 1   
     length 0.999842   
     axis -90 -7.62852e-016 -20   XYZ
    dof rx
    limits (-90.0 20.0)
  end
  begin
     id 11 
     name lowerback
     direction -0.0224668 0.997354 -0.0691422   
     length 2.09945   
     axis 0 0 0   XYZ
    dof rx ry rz
    limits (-20.0 45.0)
           (-30.0 30.0)
           (-30.0 30.0)
  end
  begin
     id 12 
     name upperback
     direction 0.0134698 0.998451 -0.0539888   
     length 2.09758   
     axis 0 0 0   XYZ
    dof rx ry rz
    limits (-20.0 45.0)
           (-30.0 30.0)
           (-30.0 30.0)
  end
  begin
     id 13 
     name thorax
     direction 0.0241905 0.99948 -0.0213333   
     length 2.10428   
     axis 0 0 0   XYZ
    dof rx ry rz
    limits (-20.0 45.0)
           (-30.0 30.0)
           (-30.0 30.0)
  end
  begin
     id 14 
     name lowerneck
     direction -0.00866847 0.995978 0.0891737   
     length 1.3959   
     axis 0 0 0   XYZ
    dof rx ry rz
    limits (-20.0 45.0)
           (-30.0 30.0)
           (-30.0 30.0)
  end
  begin
     id 15 
     name upperneck
     direction 0.0680679 0.992203 0.104404   
     length 1.39452   
     axis 0 0 0   XYZ
    dof rx ry rz
    limits (-20.0 45.0)
           (-30.0 30.0)
           (-30.0 30.0)
  end
  begin
     id 16
     name head
     direction 0.0242216 0.999358 0.0264054  
     length 1.40433  
     axis 0 0 0   XYZ
    dof rx ry rz
    limits (-20.0 45.0)
           (-30.0 30.0)
           (-30.0 30.0)
  end
  begin
     id 17 
     name lclavicle
     direction 0.929368 0.362991 -0.0671771  
     length 3.04887  
     axis 0 0 0   XYZ
    dof ry rz
    limits (-20.0 10.0)
           (0.0 20.0)
  end
  begin
     id 18 
     name lhumerus
     direction 1 -4.48967e-011 -7.13741e-028   
     length 4.77195   
     axis -180 -30 -90   XYZ
    dof rx ry rz
    limits (-60.0 90.0)
           (-90.0 90.0)
           (-90.0 90.0)
  end
  begin
     id 19
     name lradius
     direction 1 -4.48977e-011 3.60404e-027   
     length 2.98444   
     axis -180 -30 -90   XYZ
    dof rx
    limits (-10.0 170.0)
  end
  begin
     id 20
     name lwrist
     direction 1 -4.48997e-011 7.54877e-027   
     length 1.49222   
     axis -7.18178e-015 90 90   XYZ
    dof ry
    limits (-180.0 0.0)
 end
  begin
     id 21 
     name lhand
     direction 1 -4.489e-011 1.51105e-026   
     length 0.992285   
     axis -9.63605e-015 90 90   XYZ
    dof rx rz
    limits (-90.0 90.0)
           (-45.0 45.0)
  end
  begin
     id 22 
     name lfingers
     direction 1 -4.48998e-011 3.01948e-026   
     length 0.800006   
     axis -1.92718e-014 90 90   XYZ
    dof rx
    limits (0.0 90.0)
  end
  begin
     id 23
     name lthumb
     direction 0.707107 -6.34881e-011 0.707107   
     length 1.14865   
     axis -90 45 -3.53137e-014   XYZ
    dof rx rz
    limits (-45.0 45.0)
           (-45.0 45.0)
  end
  begin
     id 24 
     name rclavicle
     direction -0.945672 0.324529 0.0196374   
     length 3.4236  
     axis 0 0 0   XYZ 
    dof ry rz
    limits (-10.0 20.0)
           (-20.0 0.0)
  end
  begin
     id 25 
     name rhumerus
     direction -1 -4.4896e-011 1.02757e-029  
     length 4.62052   
     axis -180 30 90   XYZ
    dof rx ry rz
    limits (-90.0 60.0)
           (-90.0 90.0)
           (-90.0 90.0)
  end
  begin
     id 26 
     name rradius
     direction -1 -4.48982e-011 3.85962e-027   
     length 2.95332   
     axis -180 30 90   XYZ
    dof rx
    limits (-10.0 170.0)
  end
  begin
     id 27 
     name rwrist
     direction -1 -4.48961e-011 7.55118e-027   
     length 1.47666   
     axis -7.18178e-015 -90 -90   XYZ
    dof ry
    limits (-180.0 0.0)
  end
  begin
     id 28
     name rhand
     direction -1 -4.48984e-011 1.50994e-026   
     length 0.990956   
     axis -9.63605e-015 -90 -90   XYZ
    dof rx rz
    limits (-90.0 90.0)
           (-45.0 45.0)
  end
  begin
     id 29
     name rfingers
     direction -1 -4.4892e-011 3.02158e-026   
     length 0.798934   
     axis -1.92718e-014 -90 -90   XYZ
    dof rx
    limits (0.0 90.0)
  end
  begin
     id 30
     name rthumb
     direction -0.707107 -6.34916e-011 0.707107   
     length 1.14711   
     axis -90 -45 3.53137e-014   XYZ
    dof rx rz
    limits (-45.0 45.0)
           (-45.0 45.0)
  end
:hierarchy
  begin
    root lhipjoint rhipjoint lowerback
    lhipjoint lfemur
    lfemur ltibia
    ltibia lfoot
    lfoot ltoes
    rhipjoint rfemur
    rfemur rtibia
    rtibia rfoot
    rfoot rtoes
    lowerback upperback
    upperback thorax
    thorax lowerneck lclavicle rclavicle
    lowerneck upperneck
    upperneck head
    lclavicle lhumerus
    lhumerus lradius
    lradius lwrist
    lwrist lhand lthumb
    lhand lfingers
    rclavicle rhumerus
    rhumerus rradius
    rradius rwrist
    rwrist rhand rthumb
    rhand rfingers
  end

#!OML:ASF H:\ManfredObstacles\Project 1\Capture day 1\Session 1\Male.ASF
:FULLY-SPECIFIED
:DEGREES
129
root 17.5448 16.0766 30.9118 -170.689 -1.10651 -178.244
lowerback -6.84383 -0.951469 -0.671547
upperback 1.7823 -1.22938 0.331406
thorax 5.71823 -0.636559 0.578285
lowerneck 1.03009 -1.23937 -5.5947
upperneck -9.61384 -0.916398 7.09853
head -3.26481 -0.340776 3.40217
rclavicle -3.8266e-015 -4.57205e-015
rhumerus -35.7502 -26.6575 -74.0765
rradius 22.6343
rwrist 35.4741
rhand 0.344892 -6.35848
rfingers 7.12502
rthumb 25.9207 -34.6114
lclavicle -3.8266e-015 -4.57205e-015
lhumerus -29.8664 20.2932 77.8923
lradius 18.659
lwrist -33.4024
lhand -8.32657 9.62626
lfingers 7.12502
lthumb 17.5946 38.8501
rfemur -9.13653 -2.21514 26.4392
rtibia 23.1065
rfoot -22.2745 18.7266
rtoes 13.5345
lfemur -38.0292 -3.98953 -15.5233
ltibia 34.7428
lfoot -0.587723 1.09219
ltoes -8.63415
130
root 17.5391 16.0677 30.7424 -170.735 -0.709433 -178.288
lowerback -6.86439 -0.895986 -0.690862
upperback 1.74263 -1.15029 0.281299
thorax 5.68628 -0.596904 0.546347
lowerneck 0.953636 -1.19819 -5.55148
upperneck -9.45895 -0.881868 6.99033
head -3.19874 -0.324942 3.35005
rclavicle 2.6339e-015 -5.1684e-015
rhumerus -35.7007 -26.3341 -74.2793
rradius 22.6781
rwrist 35.1724
rhand 0.244874 -6.20405
rfingers 7.12502
rthumb 25.8249 -34.4709
lclavicle 2.6339e-015 -5.1684e-015
lhumerus -30.3864 21.1838 77.1139
lradius 18.2489
lwrist -34.4822
lhand -8.20007 9.39151
lfingers 7.12502
lthumb 17.7163 38.6044
rfemur -8.02465 -2.29463 26.2887
rtibia 22.304
rfoot -21.819 19.4386
rtoes 15.9955
lfemur -37.6614 -3.59489 -15.7901
ltibia 31.296
lfoot 0.990838 -0.362982
ltoes -8.42856
131
root 17.5332 16.0577 30.5723 -170.735 -0.210311 -178.181
lowerback -6.78005 -0.739468 -0.49356
upperback 1.52956 -0.952344 0.164492
thorax 5.40608 -0.489175 0.340064
lowerneck 1.44444 -1.13294 -5.56431
upperneck -9.46278 -0.81596 7.16755
head -3.29994 -0.312366 3.42281
rclavicle 5.76476e-015 1.98785e-015
rhumerus -36.0475 -26.0211 -74.488
rradius 22.8712
rwrist 34.8836
rhand 0.19745 -5.98038
rfingers 7.12502
rthumb 25.7795 -34.2538
lclavicle 5.76476e-015 1.98785e-015
lhumerus -31.1404 21.68 76.1978
lradius 17.8727
lwrist -35.5078
lhand -8.11617 9.16037
lfingers 7.12502
lthumb 17.7971 38.366
rfemur -6.98433 -2.06527 26.3141
rtibia 21.5295
rfoot -21.368 19.7225
rtoes 17.4544
lfemur -37.2002 -3.19194 -15.7687
ltibia 27.9068
lfoot 2.40074 -1.20771
ltoes -7.19821
132
root 17.5136 16.0589 30.3685 -170.924 0.302698 -178.697
lowerback -7.132 -0.646359 -0.784722
upperback 1.66786 -0.78292 -0.107789
thorax 5.74992 -0.410749 0.234903
lowerneck 1.74811 -1.05375 -5.79864
upperneck -10.0235 -0.627266 7.83386
head -3.19812 -0.256815 3.34418
rclavicle -2.03754e-015 3.18055e-015
rhumerus -35.9832 -25.8292 -74.7571
rradius 23.0291
rwrist 34.7385
rhand 0.21857 -5.83705
rfingers 7.12502
rthumb 25.7997 -34.1076
lclavicle -2.03754e-015 3.18055e-015
lhumerus -31.4519 22.4454 75.4564
lradius 17.4403
lwrist -36.6354
lhand -8.14762 9.14873
lfingers 7.12502
lthumb 17.7668 38.3571
rfemur -5.59015 -2.54501 25.5128
rtibia 20.7975
rfoot -21.5918 20.4681
rtoes 17.1287
lfemur -36.1788 -2.90593 -16.5488
ltibia 24.648
lfoot 3.16599 -1.71542
ltoes -5.4749
133
root 17.5019 16.0483 30.1793 -170.999 0.676011 -179.052
lowerback -7.48552 -0.654241 -1.18866
upperback 1.89086 -0.744528 -0.160733
thorax 6.19106 -0.406636 0.405779
lowerneck 1.75416 -1.02717 -6.08893
upperneck -10.4763 -0.532755 8.04335
head -3.33745 -0.196588 3.45849
rclavicle 9.0944e-015 2.06736e-014
rhumerus -35.4326 -25.813 -74.9365
rradius 22.9305
rwrist 34.7953
rhand 0.22806 -5.73557
rfingers 7.12502
rthumb 25.8088 -34.0048
lclavicle 9.0944e-015 2.06736e-014
lhumerus -31.4792 23.6403 74.8791
lradius 16.9835
lwrist -37.7857
lhand -8.15251 9.16557
lfingers 7.12502
lthumb 17.7621 38.3744
rfemur -4.42326 -2.49107 25.0094
rtibia 20.09
rfoot -20.8035 20.8454
rtoes 17.7957
lfemur -35.3709 -2.36362 -17.2601
ltibia 21.6799
lfoot 4.01013 -2.26315
ltoes -5.25908
